<svg width="369" height="369" viewBox="0 0 369 369" fill="none" xmlns="http://www.w3.org/2000/svg">
<path d="M234 35H135C130.582 35 127 38.5817 127 43V79C127 83.4183 130.582 87 135 87H234C238.418 87 242 83.4183 242 79V43C242 38.5817 238.418 35 234 35Z" stroke="black" stroke-opacity="0.5" stroke-width="7" stroke-linecap="round" stroke-linejoin="round"/>
<path d="M247 58.1228H287.581C290.63 58.1228 293.556 59.3344 295.712 61.4911C297.869 63.6478 299.081 66.5728 299.081 69.6228V311.123C299.081 314.173 297.869 317.098 295.712 319.255C293.556 321.411 290.63 322.623 287.581 322.623H80.5805C77.5305 322.623 74.6054 321.411 72.4488 319.255C70.2921 317.098 69.0805 314.173 69.0805 311.123V69.6228C69.0805 66.5728 70.2921 63.6478 72.4488 61.4911C74.6054 59.3344 77.5305 58.1228 80.5805 58.1228H121.5" stroke="black" stroke-opacity="0.5" stroke-width="7" stroke-linecap="round" stroke-linejoin="round"/>
<path d="M138.081 194.123H230.081" stroke="black" stroke-opacity="0.5" stroke-width="2" stroke-linecap="round" stroke-linejoin="round"/>
<path d="M138.081 157.123L152.5 152.5L158.5 157.123L195.419 150.5L213 157.123L232 152.5" stroke="black" stroke-opacity="0.5" stroke-width="2" stroke-linecap="round" stroke-linejoin="round"/>
<path d="M231.919 231L225 234.5L217.5 235.623L211.5 231L200.5 232.5L195 235.623H184.5L174.58 237.623L157 231L138 235.623" stroke="black" stroke-opacity="0.5" stroke-width="2" stroke-linecap="round" stroke-linejoin="round"/>
</svg>
