<svg width="23" height="24" viewBox="0 0 23 24" fill="none" xmlns="http://www.w3.org/2000/svg">
<path d="M10.5149 11.7432C10.7823 12.0901 11.2177 12.0901 11.4889 11.7432L15.6483 6.39007C16.8552 4.83382 16.7865 2.2557 15.4344 0.821323C14.258 -0.43024 12.5049 -0.20524 11.4278 1.18226L11 1.7307L10.576 1.18695C9.49896 -0.20524 7.74583 -0.43024 6.56944 0.821323C5.22118 2.2557 5.14861 4.83382 6.35556 6.39007L10.5149 11.7432ZM21.5913 15.3807C21.1406 14.8791 20.4378 14.9119 19.9642 15.3807L16.4351 18.8448C16.0035 19.2713 15.4649 19.501 14.9073 19.501H10.3889C10.0528 19.501 9.77778 19.1635 9.77778 18.751C9.77778 18.3385 10.0528 18.001 10.3889 18.001H13.3795C13.9868 18.001 14.5521 17.4901 14.6514 16.7541C14.7774 15.8166 14.1892 15.001 13.4444 15.001H7.33333C6.30208 15.001 5.30521 15.4369 4.50313 16.2338L2.72708 18.001H0.611111C0.275 18.001 0 18.3385 0 18.751V23.251C0 23.6635 0.275 24.001 0.611111 24.001H14.2389C14.7927 24.001 15.3312 23.7713 15.7667 23.3448L21.5417 17.6729C22.1222 17.1057 22.1681 16.0182 21.5913 15.3807Z" fill="black" fill-opacity="0.5"/>
</svg>
