<svg width="256" height="100" viewBox="0 0 256 100" fill="none" xmlns="http://www.w3.org/2000/svg">
<path d="M0 0H256V100H0V0Z" fill="url(#paint0_linear)"/>
<path d="M51.736 64.24C50.776 64.24 50.008 63.968 49.432 63.424C48.888 62.848 48.616 62.096 48.616 61.168V35.248H39.88C37.96 35.248 37 34.4 37 32.704C37 31.008 37.96 30.16 39.88 30.16H63.544C65.464 30.16 66.424 31.008 66.424 32.704C66.424 34.4 65.464 35.248 63.544 35.248H54.808V61.168C54.808 62.096 54.52 62.848 53.944 63.424C53.4 63.968 52.664 64.24 51.736 64.24ZM76.5115 64.384C74.1115 64.384 71.9995 63.888 70.1755 62.896C68.3835 61.904 66.9915 60.48 65.9995 58.624C65.0075 56.768 64.5115 54.608 64.5115 52.144C64.5115 49.68 65.0075 47.536 65.9995 45.712C66.9915 43.856 68.3835 42.432 70.1755 41.44C71.9995 40.448 74.1115 39.952 76.5115 39.952C78.9115 39.952 81.0075 40.448 82.7995 41.44C84.6235 42.432 86.0155 43.856 86.9755 45.712C87.9675 47.536 88.4635 49.68 88.4635 52.144C88.4635 54.608 87.9675 56.768 86.9755 58.624C86.0155 60.48 84.6235 61.904 82.7995 62.896C81.0075 63.888 78.9115 64.384 76.5115 64.384ZM76.4635 59.728C78.4155 59.728 79.9035 59.088 80.9275 57.808C81.9515 56.528 82.4635 54.64 82.4635 52.144C82.4635 49.68 81.9515 47.808 80.9275 46.528C79.9035 45.216 78.4315 44.56 76.5115 44.56C74.5915 44.56 73.1035 45.216 72.0475 46.528C71.0235 47.808 70.5115 49.68 70.5115 52.144C70.5115 54.64 71.0235 56.528 72.0475 57.808C73.0715 59.088 74.5435 59.728 76.4635 59.728Z" fill="white"/>
<path d="M163.704 30.92C164.6 30.92 165.336 31.176 165.912 31.688C166.488 32.2 166.776 32.872 166.776 33.704V62.408C166.776 63.272 166.504 63.96 165.96 64.472C165.416 64.984 164.696 65.24 163.8 65.24C162.904 65.24 162.184 64.984 161.64 64.472C161.096 63.96 160.824 63.272 160.824 62.408V61.208C160.12 62.52 159.096 63.544 157.752 64.28C156.44 65.016 154.936 65.384 153.24 65.384C151.224 65.384 149.416 64.872 147.816 63.848C146.248 62.824 145.016 61.384 144.12 59.528C143.256 57.64 142.824 55.48 142.824 53.048C142.824 50.616 143.256 48.488 144.12 46.664C145.016 44.84 146.248 43.432 147.816 42.44C149.384 41.448 151.192 40.952 153.24 40.952C154.936 40.952 156.44 41.304 157.752 42.008C159.064 42.712 160.072 43.704 160.776 44.984V33.608C160.776 32.808 161.032 32.168 161.544 31.688C162.088 31.176 162.808 30.92 163.704 30.92ZM154.824 60.728C156.744 60.728 158.216 60.072 159.24 58.76C160.296 57.448 160.824 55.576 160.824 53.144C160.824 50.712 160.296 48.856 159.24 47.576C158.216 46.264 156.76 45.608 154.872 45.608C152.952 45.608 151.464 46.248 150.408 47.528C149.352 48.808 148.824 50.648 148.824 53.048C148.824 55.48 149.352 57.368 150.408 58.712C151.464 60.056 152.936 60.728 154.824 60.728ZM183.652 65.384C181.252 65.384 179.14 64.888 177.316 63.896C175.524 62.904 174.132 61.48 173.14 59.624C172.148 57.768 171.652 55.608 171.652 53.144C171.652 50.68 172.148 48.536 173.14 46.712C174.132 44.856 175.524 43.432 177.316 42.44C179.14 41.448 181.252 40.952 183.652 40.952C186.052 40.952 188.148 41.448 189.94 42.44C191.764 43.432 193.156 44.856 194.116 46.712C195.108 48.536 195.604 50.68 195.604 53.144C195.604 55.608 195.108 57.768 194.116 59.624C193.156 61.48 191.764 62.904 189.94 63.896C188.148 64.888 186.052 65.384 183.652 65.384ZM183.604 60.728C185.556 60.728 187.044 60.088 188.068 58.808C189.092 57.528 189.604 55.64 189.604 53.144C189.604 50.68 189.092 48.808 188.068 47.528C187.044 46.216 185.572 45.56 183.652 45.56C181.732 45.56 180.244 46.216 179.188 47.528C178.164 48.808 177.652 50.68 177.652 53.144C177.652 55.64 178.164 57.528 179.188 58.808C180.212 60.088 181.684 60.728 183.604 60.728ZM209.054 65.384C205.566 65.384 202.75 64.696 200.605 63.32C199.582 62.712 199.07 61.848 199.07 60.728C199.07 60.088 199.246 59.576 199.598 59.192C199.95 58.776 200.382 58.568 200.894 58.568C201.438 58.568 202.19 58.824 203.15 59.336C204.174 59.816 205.102 60.184 205.934 60.44C206.798 60.696 207.886 60.824 209.198 60.824C210.542 60.824 211.582 60.6 212.318 60.152C213.086 59.704 213.47 59.08 213.47 58.28C213.47 57.736 213.31 57.304 212.99 56.984C212.702 56.664 212.158 56.376 211.358 56.12C210.59 55.832 209.406 55.512 207.806 55.16C204.958 54.584 202.91 53.768 201.662 52.712C200.446 51.656 199.838 50.2 199.838 48.344C199.838 46.936 200.254 45.672 201.086 44.552C201.918 43.4 203.054 42.52 204.493 41.912C205.966 41.272 207.63 40.952 209.486 40.952C210.83 40.952 212.126 41.128 213.374 41.48C214.622 41.8 215.742 42.28 216.734 42.92C217.758 43.56 218.27 44.408 218.27 45.464C218.27 46.104 218.094 46.648 217.742 47.096C217.39 47.512 216.958 47.72 216.446 47.72C216.094 47.72 215.742 47.656 215.39 47.528C215.07 47.368 214.654 47.144 214.142 46.856C213.214 46.376 212.414 46.024 211.742 45.8C211.07 45.544 210.238 45.416 209.246 45.416C208.062 45.416 207.118 45.656 206.414 46.136C205.742 46.616 205.406 47.272 205.406 48.104C205.406 48.904 205.758 49.512 206.462 49.928C207.166 50.344 208.526 50.76 210.542 51.176C212.686 51.624 214.366 52.136 215.582 52.712C216.798 53.288 217.662 54.008 218.174 54.872C218.718 55.736 218.99 56.84 218.99 58.184C218.99 60.36 218.078 62.104 216.254 63.416C214.462 64.728 212.062 65.384 209.054 65.384Z" fill="#FF6347"/>
<path d="M124 32H128C129.061 32 130.078 32.4214 130.828 33.1716C131.579 33.9217 132 34.9391 132 36V64C132 65.0609 131.579 66.0783 130.828 66.8284C130.078 67.5786 129.061 68 128 68H104C102.939 68 101.922 67.5786 101.172 66.8284C100.421 66.0783 100 65.0609 100 64V36C100 34.9391 100.421 33.9217 101.172 33.1716C101.922 32.4214 102.939 32 104 32H108" stroke="url(#paint1_linear)" stroke-width="3" stroke-linecap="round" stroke-linejoin="round"/>
<path d="M122 28H110C108.895 28 108 28.8954 108 30V34C108 35.1046 108.895 36 110 36H122C123.105 36 124 35.1046 124 34V30C124 28.8954 123.105 28 122 28Z" stroke="white" stroke-width="3" stroke-linecap="round" stroke-linejoin="round"/>
<defs>
<linearGradient id="paint0_linear" x1="53" y1="33.5" x2="179.5" y2="80" gradientUnits="userSpaceOnUse">
<stop stop-color="#1F3F5C" stop-opacity="0.92"/>
<stop offset="1" stop-opacity="0.69"/>
</linearGradient>
<linearGradient id="paint1_linear" x1="116" y1="39" x2="116" y2="68" gradientUnits="userSpaceOnUse">
<stop stop-color="white"/>
<stop offset="1" stop-color="#FF6347"/>
</linearGradient>
</defs>
</svg>
