<svg width="184" height="48" viewBox="0 0 184 48" fill="none" xmlns="http://www.w3.org/2000/svg">
<path d="M14.736 40.24C13.776 40.24 13.008 39.968 12.432 39.424C11.888 38.848 11.616 38.096 11.616 37.168V11.248H2.88C0.96 11.248 0 10.4 0 8.704C0 7.008 0.96 6.16 2.88 6.16H26.544C28.464 6.16 29.424 7.008 29.424 8.704C29.424 10.4 28.464 11.248 26.544 11.248H17.808V37.168C17.808 38.096 17.52 38.848 16.944 39.424C16.4 39.968 15.664 40.24 14.736 40.24ZM39.5115 40.384C37.1115 40.384 34.9995 39.888 33.1755 38.896C31.3835 37.904 29.9915 36.48 28.9995 34.624C28.0075 32.768 27.5115 30.608 27.5115 28.144C27.5115 25.68 28.0075 23.536 28.9995 21.712C29.9915 19.856 31.3835 18.432 33.1755 17.44C34.9995 16.448 37.1115 15.952 39.5115 15.952C41.9115 15.952 44.0075 16.448 45.7995 17.44C47.6235 18.432 49.0155 19.856 49.9755 21.712C50.9675 23.536 51.4635 25.68 51.4635 28.144C51.4635 30.608 50.9675 32.768 49.9755 34.624C49.0155 36.48 47.6235 37.904 45.7995 38.896C44.0075 39.888 41.9115 40.384 39.5115 40.384ZM39.4635 35.728C41.4155 35.728 42.9035 35.088 43.9275 33.808C44.9515 32.528 45.4635 30.64 45.4635 28.144C45.4635 25.68 44.9515 23.808 43.9275 22.528C42.9035 21.216 41.4315 20.56 39.5115 20.56C37.5915 20.56 36.1035 21.216 35.0475 22.528C34.0235 23.808 33.5115 25.68 33.5115 28.144C33.5115 30.64 34.0235 32.528 35.0475 33.808C36.0715 35.088 37.5435 35.728 39.4635 35.728Z" fill="white"/>
<path d="M126.704 6.92C127.6 6.92 128.336 7.176 128.912 7.688C129.488 8.2 129.776 8.872 129.776 9.704V38.408C129.776 39.272 129.504 39.96 128.96 40.472C128.416 40.984 127.696 41.24 126.8 41.24C125.904 41.24 125.184 40.984 124.64 40.472C124.096 39.96 123.824 39.272 123.824 38.408V37.208C123.12 38.52 122.096 39.544 120.752 40.28C119.44 41.016 117.936 41.384 116.24 41.384C114.224 41.384 112.416 40.872 110.816 39.848C109.248 38.824 108.016 37.384 107.12 35.528C106.256 33.64 105.824 31.48 105.824 29.048C105.824 26.616 106.256 24.488 107.12 22.664C108.016 20.84 109.248 19.432 110.816 18.44C112.384 17.448 114.192 16.952 116.24 16.952C117.936 16.952 119.44 17.304 120.752 18.008C122.064 18.712 123.072 19.704 123.776 20.984V9.608C123.776 8.808 124.032 8.168 124.544 7.688C125.088 7.176 125.808 6.92 126.704 6.92ZM117.824 36.728C119.744 36.728 121.216 36.072 122.24 34.76C123.296 33.448 123.824 31.576 123.824 29.144C123.824 26.712 123.296 24.856 122.24 23.576C121.216 22.264 119.76 21.608 117.872 21.608C115.952 21.608 114.464 22.248 113.408 23.528C112.352 24.808 111.824 26.648 111.824 29.048C111.824 31.48 112.352 33.368 113.408 34.712C114.464 36.056 115.936 36.728 117.824 36.728ZM146.652 41.384C144.252 41.384 142.14 40.888 140.316 39.896C138.524 38.904 137.132 37.48 136.14 35.624C135.148 33.768 134.652 31.608 134.652 29.144C134.652 26.68 135.148 24.536 136.14 22.712C137.132 20.856 138.524 19.432 140.316 18.44C142.14 17.448 144.252 16.952 146.652 16.952C149.052 16.952 151.148 17.448 152.94 18.44C154.764 19.432 156.156 20.856 157.116 22.712C158.108 24.536 158.604 26.68 158.604 29.144C158.604 31.608 158.108 33.768 157.116 35.624C156.156 37.48 154.764 38.904 152.94 39.896C151.148 40.888 149.052 41.384 146.652 41.384ZM146.604 36.728C148.556 36.728 150.044 36.088 151.068 34.808C152.092 33.528 152.604 31.64 152.604 29.144C152.604 26.68 152.092 24.808 151.068 23.528C150.044 22.216 148.572 21.56 146.652 21.56C144.732 21.56 143.244 22.216 142.188 23.528C141.164 24.808 140.652 26.68 140.652 29.144C140.652 31.64 141.164 33.528 142.188 34.808C143.212 36.088 144.684 36.728 146.604 36.728ZM172.054 41.384C168.566 41.384 165.75 40.696 163.605 39.32C162.582 38.712 162.07 37.848 162.07 36.728C162.07 36.088 162.246 35.576 162.598 35.192C162.95 34.776 163.382 34.568 163.894 34.568C164.438 34.568 165.19 34.824 166.15 35.336C167.174 35.816 168.102 36.184 168.934 36.44C169.798 36.696 170.886 36.824 172.198 36.824C173.542 36.824 174.582 36.6 175.318 36.152C176.086 35.704 176.47 35.08 176.47 34.28C176.47 33.736 176.31 33.304 175.99 32.984C175.702 32.664 175.158 32.376 174.358 32.12C173.59 31.832 172.406 31.512 170.806 31.16C167.958 30.584 165.91 29.768 164.662 28.712C163.446 27.656 162.838 26.2 162.838 24.344C162.838 22.936 163.254 21.672 164.086 20.552C164.918 19.4 166.054 18.52 167.493 17.912C168.966 17.272 170.63 16.952 172.486 16.952C173.83 16.952 175.126 17.128 176.374 17.48C177.622 17.8 178.742 18.28 179.734 18.92C180.758 19.56 181.27 20.408 181.27 21.464C181.27 22.104 181.094 22.648 180.742 23.096C180.39 23.512 179.958 23.72 179.446 23.72C179.094 23.72 178.742 23.656 178.39 23.528C178.07 23.368 177.654 23.144 177.142 22.856C176.214 22.376 175.414 22.024 174.742 21.8C174.07 21.544 173.238 21.416 172.246 21.416C171.062 21.416 170.118 21.656 169.414 22.136C168.742 22.616 168.406 23.272 168.406 24.104C168.406 24.904 168.758 25.512 169.462 25.928C170.166 26.344 171.526 26.76 173.542 27.176C175.686 27.624 177.366 28.136 178.582 28.712C179.798 29.288 180.662 30.008 181.174 30.872C181.718 31.736 181.99 32.84 181.99 34.184C181.99 36.36 181.078 38.104 179.254 39.416C177.462 40.728 175.062 41.384 172.054 41.384Z" fill="#FF6347"/>
<path d="M87 8H91C92.0609 8 93.0783 8.42143 93.8284 9.17157C94.5786 9.92172 95 10.9391 95 12V40C95 41.0609 94.5786 42.0783 93.8284 42.8284C93.0783 43.5786 92.0609 44 91 44H67C65.9391 44 64.9217 43.5786 64.1716 42.8284C63.4214 42.0783 63 41.0609 63 40V12C63 10.9391 63.4214 9.92172 64.1716 9.17157C64.9217 8.42143 65.9391 8 67 8H71" stroke="url(#paint0_linear)" stroke-width="3" stroke-linecap="round" stroke-linejoin="round"/>
<path d="M85 4H73C71.8954 4 71 4.89543 71 6V10C71 11.1046 71.8954 12 73 12H85C86.1046 12 87 11.1046 87 10V6C87 4.89543 86.1046 4 85 4Z" stroke="white" stroke-width="3" stroke-linecap="round" stroke-linejoin="round"/>
<defs>
<linearGradient id="paint0_linear" x1="79" y1="15" x2="79" y2="44" gradientUnits="userSpaceOnUse">
<stop stop-color="white"/>
<stop offset="1" stop-color="#FF6347"/>
</linearGradient>
</defs>
</svg>
