<svg width="253" height="93" viewBox="0 0 253 93" fill="none" xmlns="http://www.w3.org/2000/svg">
<g clip-path="url(#clip0)">
<rect width="1440" height="820" fill="url(#paint0_linear)" fill-opacity="0.7"/>
</g>
<rect x="0.5" y="0.5" width="252" height="92" stroke="black"/>
<path d="M49.736 62.24C48.776 62.24 48.008 61.968 47.432 61.424C46.888 60.848 46.616 60.096 46.616 59.168V33.248H37.88C35.96 33.248 35 32.4 35 30.704C35 29.008 35.96 28.16 37.88 28.16H61.544C63.464 28.16 64.424 29.008 64.424 30.704C64.424 32.4 63.464 33.248 61.544 33.248H52.808V59.168C52.808 60.096 52.52 60.848 51.944 61.424C51.4 61.968 50.664 62.24 49.736 62.24ZM74.5115 62.384C72.1115 62.384 69.9995 61.888 68.1755 60.896C66.3835 59.904 64.9915 58.48 63.9995 56.624C63.0075 54.768 62.5115 52.608 62.5115 50.144C62.5115 47.68 63.0075 45.536 63.9995 43.712C64.9915 41.856 66.3835 40.432 68.1755 39.44C69.9995 38.448 72.1115 37.952 74.5115 37.952C76.9115 37.952 79.0075 38.448 80.7995 39.44C82.6235 40.432 84.0155 41.856 84.9755 43.712C85.9675 45.536 86.4635 47.68 86.4635 50.144C86.4635 52.608 85.9675 54.768 84.9755 56.624C84.0155 58.48 82.6235 59.904 80.7995 60.896C79.0075 61.888 76.9115 62.384 74.5115 62.384ZM74.4635 57.728C76.4155 57.728 77.9035 57.088 78.9275 55.808C79.9515 54.528 80.4635 52.64 80.4635 50.144C80.4635 47.68 79.9515 45.808 78.9275 44.528C77.9035 43.216 76.4315 42.56 74.5115 42.56C72.5915 42.56 71.1035 43.216 70.0475 44.528C69.0235 45.808 68.5115 47.68 68.5115 50.144C68.5115 52.64 69.0235 54.528 70.0475 55.808C71.0715 57.088 72.5435 57.728 74.4635 57.728Z" fill="white"/>
<path d="M161.704 28.92C162.6 28.92 163.336 29.176 163.912 29.688C164.488 30.2 164.776 30.872 164.776 31.704V60.408C164.776 61.272 164.504 61.96 163.96 62.472C163.416 62.984 162.696 63.24 161.8 63.24C160.904 63.24 160.184 62.984 159.64 62.472C159.096 61.96 158.824 61.272 158.824 60.408V59.208C158.12 60.52 157.096 61.544 155.752 62.28C154.44 63.016 152.936 63.384 151.24 63.384C149.224 63.384 147.416 62.872 145.816 61.848C144.248 60.824 143.016 59.384 142.12 57.528C141.256 55.64 140.824 53.48 140.824 51.048C140.824 48.616 141.256 46.488 142.12 44.664C143.016 42.84 144.248 41.432 145.816 40.44C147.384 39.448 149.192 38.952 151.24 38.952C152.936 38.952 154.44 39.304 155.752 40.008C157.064 40.712 158.072 41.704 158.776 42.984V31.608C158.776 30.808 159.032 30.168 159.544 29.688C160.088 29.176 160.808 28.92 161.704 28.92ZM152.824 58.728C154.744 58.728 156.216 58.072 157.24 56.76C158.296 55.448 158.824 53.576 158.824 51.144C158.824 48.712 158.296 46.856 157.24 45.576C156.216 44.264 154.76 43.608 152.872 43.608C150.952 43.608 149.464 44.248 148.408 45.528C147.352 46.808 146.824 48.648 146.824 51.048C146.824 53.48 147.352 55.368 148.408 56.712C149.464 58.056 150.936 58.728 152.824 58.728ZM181.652 63.384C179.252 63.384 177.14 62.888 175.316 61.896C173.524 60.904 172.132 59.48 171.14 57.624C170.148 55.768 169.652 53.608 169.652 51.144C169.652 48.68 170.148 46.536 171.14 44.712C172.132 42.856 173.524 41.432 175.316 40.44C177.14 39.448 179.252 38.952 181.652 38.952C184.052 38.952 186.148 39.448 187.94 40.44C189.764 41.432 191.156 42.856 192.116 44.712C193.108 46.536 193.604 48.68 193.604 51.144C193.604 53.608 193.108 55.768 192.116 57.624C191.156 59.48 189.764 60.904 187.94 61.896C186.148 62.888 184.052 63.384 181.652 63.384ZM181.604 58.728C183.556 58.728 185.044 58.088 186.068 56.808C187.092 55.528 187.604 53.64 187.604 51.144C187.604 48.68 187.092 46.808 186.068 45.528C185.044 44.216 183.572 43.56 181.652 43.56C179.732 43.56 178.244 44.216 177.188 45.528C176.164 46.808 175.652 48.68 175.652 51.144C175.652 53.64 176.164 55.528 177.188 56.808C178.212 58.088 179.684 58.728 181.604 58.728ZM207.054 63.384C203.566 63.384 200.75 62.696 198.605 61.32C197.582 60.712 197.07 59.848 197.07 58.728C197.07 58.088 197.246 57.576 197.598 57.192C197.95 56.776 198.382 56.568 198.894 56.568C199.438 56.568 200.19 56.824 201.15 57.336C202.174 57.816 203.102 58.184 203.934 58.44C204.798 58.696 205.886 58.824 207.198 58.824C208.542 58.824 209.582 58.6 210.318 58.152C211.086 57.704 211.47 57.08 211.47 56.28C211.47 55.736 211.31 55.304 210.99 54.984C210.702 54.664 210.158 54.376 209.358 54.12C208.59 53.832 207.406 53.512 205.806 53.16C202.958 52.584 200.91 51.768 199.662 50.712C198.446 49.656 197.838 48.2 197.838 46.344C197.838 44.936 198.254 43.672 199.086 42.552C199.918 41.4 201.054 40.52 202.493 39.912C203.966 39.272 205.63 38.952 207.486 38.952C208.83 38.952 210.126 39.128 211.374 39.48C212.622 39.8 213.742 40.28 214.734 40.92C215.758 41.56 216.27 42.408 216.27 43.464C216.27 44.104 216.094 44.648 215.742 45.096C215.39 45.512 214.958 45.72 214.446 45.72C214.094 45.72 213.742 45.656 213.39 45.528C213.07 45.368 212.654 45.144 212.142 44.856C211.214 44.376 210.414 44.024 209.742 43.8C209.07 43.544 208.238 43.416 207.246 43.416C206.062 43.416 205.118 43.656 204.414 44.136C203.742 44.616 203.406 45.272 203.406 46.104C203.406 46.904 203.758 47.512 204.462 47.928C205.166 48.344 206.526 48.76 208.542 49.176C210.686 49.624 212.366 50.136 213.582 50.712C214.798 51.288 215.662 52.008 216.174 52.872C216.718 53.736 216.99 54.84 216.99 56.184C216.99 58.36 216.078 60.104 214.254 61.416C212.462 62.728 210.062 63.384 207.054 63.384Z" fill="#FF6347"/>
<path d="M122 30H126C127.061 30 128.078 30.4214 128.828 31.1716C129.579 31.9217 130 32.9391 130 34V62C130 63.0609 129.579 64.0783 128.828 64.8284C128.078 65.5786 127.061 66 126 66H102C100.939 66 99.9217 65.5786 99.1716 64.8284C98.4214 64.0783 98 63.0609 98 62V34C98 32.9391 98.4214 31.9217 99.1716 31.1716C99.9217 30.4214 100.939 30 102 30H106" stroke="url(#paint1_linear)" stroke-width="3" stroke-linecap="round" stroke-linejoin="round"/>
<path d="M120 26H108C106.895 26 106 26.8954 106 28V32C106 33.1046 106.895 34 108 34H120C121.105 34 122 33.1046 122 32V28C122 26.8954 121.105 26 120 26Z" stroke="white" stroke-width="3" stroke-linecap="round" stroke-linejoin="round"/>
<defs>
<linearGradient id="paint0_linear" x1="224.5" y1="128" x2="1017" y2="747.5" gradientUnits="userSpaceOnUse">
<stop stop-color="#1F3F5C"/>
<stop offset="1"/>
</linearGradient>
<linearGradient id="paint1_linear" x1="114" y1="37" x2="114" y2="66" gradientUnits="userSpaceOnUse">
<stop stop-color="white"/>
<stop offset="1" stop-color="#FF6347"/>
</linearGradient>
<clipPath id="clip0">
</clipPath>
</defs>
</svg>
